<svg id="Layer_1" data-name="Layer 1" xmlns="http://www.w3.org/2000/svg" viewBox="0 0 348.7 124.51"><defs><style>.cls-1{fill:#ffffff;}</style></defs><title>pwc-mark</title><path class="cls-1" d="M112.8,206.13c18.41,0,24.66,11.29,24.66,25.18,0,14.24-6.25,25-24.66,25H95.44V206.13H112.8Zm0,66.68c29.87,0,43.76-18.23,43.76-41.5,0-22.92-13.89-41.68-43.76-41.68H76.33V311.19h19.1V272.81H112.8Zm77.1,38.38,45.15-83v83h16L320,189.63H299.13l-46.71,87.18,0.35-87.18H238L192.33,274.2l0.87-84.57H173.93V311.19h16Zm232-103.33c-11.64-13.55-27.27-19.62-46-19.62C339.59,188.25,313,216,313,250.59a63.12,63.12,0,0,0,15.28,41.33c11.29,12.85,28,20.84,47.58,20.84,20.67,0,36.47-8.16,49.14-22.4L411.31,278.2c-8.34,10.94-20.15,18.06-35.43,18.06-13.2,0-24.31-5.21-32.13-13.72-7.29-8.16-11.63-19.45-11.63-32,0-25.87,17.89-45.84,43.76-45.84,13.37,0,24.49,6.25,32.3,15.45l13.72-12.33h0Z" transform="translate(-76.33 -188.25)"/></svg>