<?xml version="1.0" standalone="no"?>
<!DOCTYPE svg PUBLIC "-//W3C//DTD SVG 1.1//EN" "http://www.w3.org/Graphics/SVG/1.1/DTD/svg11.dtd" >
<svg>
<metadata>
Created by FontForge 20130922 at Thu Sep  4 13:27:36 2014
 By Jeremy Mickel
Copyright (c) 2014 MCKL, Inc. All rights reserved.
</metadata>
<defs>
<font id="WilsonTextAlt-Regular" horiz-adv-x="235" >
  <font-face 
    font-family="Wilson Text Alt Regular"
    font-weight="500"
    font-stretch="normal"
    units-per-em="1000"
    panose-1="0 0 0 0 0 0 0 0 0 0"
    ascent="750"
    descent="-250"
    x-height="475"
    cap-height="700"
    bbox="-156 -250 903 916"
    underline-thickness="0"
    underline-position="0"
    unicode-range="U+0020-F6BE"
  />
<missing-glyph horiz-adv-x="500" 
d="M50 -250v1000h400v-1000h-400z" />
    <glyph glyph-name=".notdef" horiz-adv-x="500" 
d="M50 -250v1000h400v-1000h-400z" />
    <glyph glyph-name="Yacute" unicode="&#xdd;" horiz-adv-x="592" 
d="M341 0h-90v272l-229 428h98l177 -339h4l172 339h98l-230 -430v-270zM446 916v-6l-114 -111h-73v4l76 113h111z" />
    <glyph glyph-name="yacute" unicode="&#xfd;" horiz-adv-x="455" 
d="M59 -225q-17 0 -29.5 1.5t-18.5 4.5l9 77q8 -2 17.5 -3.5t18.5 -1.5q37 0 61.5 25t46.5 85l20 54l-174 458h90l124 -342h4l129 342h88l-202 -531q-32 -84 -73 -126.5t-111 -42.5zM378 691v-6l-114 -111h-73v4l76 113h111z" />
    <glyph glyph-name="space" unicode=" " horiz-adv-x="210" 
 />
    <glyph glyph-name="exclam" unicode="!" horiz-adv-x="193" 
d="M132 191h-71l-10 519h91zM47 101h100v-101h-100v101z" />
    <glyph glyph-name="quotedbl" unicode="&#x22;" horiz-adv-x="333" 
d="M267 471h-61l-10 239h81zM127 471h-61l-10 239h81z" />
    <glyph glyph-name="dollar" unicode="$" horiz-adv-x="450" 
d="M124 511q0 -30 19.5 -50t48.5 -37v164q-32 -7 -50 -27.5t-18 -49.5zM332 198q0 34 -21.5 55t-53.5 37v-179q39 8 57 30.5t18 56.5zM257 -50h-65v80q-49 3 -90 19.5t-77 45.5l41 71q26 -24 57 -40.5t69 -19.5v217l-1 1q-53 28 -101.5 65.5t-48.5 115.5q0 63 40 107t111 55
v83h65v-81q40 -3 74 -18.5t63 -38.5l-49 -69q-20 17 -41 29.5t-47 17.5v-200q28 -14 57 -29.5t52 -36t37.5 -49t14.5 -68.5q0 -72 -43 -118.5t-118 -56.5v-82z" />
    <glyph glyph-name="ampersand" unicode="&#x26;" horiz-adv-x="580" 
d="M171 549q0 -24 9 -52.5t45 -74.5q52 34 74.5 64.5t22.5 66.5q0 35 -20 59t-55 24q-33 0 -54.5 -23.5t-21.5 -63.5zM226 69q43 0 78.5 14t69.5 51l-173 183q-43 -32 -62.5 -64.5t-19.5 -73.5q0 -45 28.5 -77.5t78.5 -32.5zM507 -5l-80 84q-43 -45 -93.5 -66.5
t-112.5 -21.5q-85 0 -137.5 49t-52.5 133q0 61 29 109t92 92q-38 50 -51.5 90.5t-13.5 78.5q0 72 45.5 119.5t116.5 47.5q75 0 116.5 -43.5t41.5 -105.5q0 -57 -34.5 -104.5t-98.5 -90.5l154 -163l65 87l65 -51l-75 -94l84 -89z" />
    <glyph glyph-name="quotesingle" unicode="'" horiz-adv-x="193" 
d="M127 471h-61l-10 239h81z" />
    <glyph glyph-name="parenleft" unicode="(" horiz-adv-x="356" 
d="M145 299q0 -106 43 -195t133 -155l-46 -62q-107 68 -161 176.5t-54 235.5t54 235.5t161 176.5l46 -62q-90 -66 -133 -155t-43 -195z" />
    <glyph glyph-name="parenright" unicode=")" horiz-adv-x="356" 
d="M35 -51q90 66 133 155t43 195t-43 195t-133 155l46 62q107 -68 161 -176.5t54 -235.5t-54 -235.5t-161 -176.5z" />
    <glyph glyph-name="comma" unicode="," horiz-adv-x="184" 
d="M12 -84q18 42 26.5 72.5t8.5 60.5v52h90v-48q0 -30 -11.5 -64.5t-30.5 -72.5l-34 -70h-79z" />
    <glyph glyph-name="hyphen" unicode="-" horiz-adv-x="409" 
d="M55 302v75h299v-75h-299z" />
    <glyph glyph-name="period" unicode="." horiz-adv-x="194" 
d="M47 101h100v-101h-100v101z" />
    <glyph glyph-name="slash" unicode="/" horiz-adv-x="500" 
d="M16 -151l389 851h95l-389 -851h-95z" />
    <glyph glyph-name="zero" unicode="0" horiz-adv-x="585" 
d="M293 708q110 0 178.5 -94t68.5 -265q0 -170 -68.5 -264t-178.5 -94t-178.5 94t-68.5 264q0 171 68.5 265t178.5 94zM293 628q-64 0 -110.5 -73.5t-46.5 -205.5q0 -131 46.5 -204.5t110.5 -73.5t110.5 73.5t46.5 204.5q0 132 -46.5 205.5t-110.5 73.5z" />
    <glyph glyph-name="one" unicode="1" horiz-adv-x="367" 
d="M262 0h-90v567l-4 2q-24 -22 -60.5 -39.5t-89.5 -24.5v75q49 7 86 33t81 87h77v-700z" />
    <glyph glyph-name="two" unicode="2" horiz-adv-x="530" 
d="M471 0h-447v10l205 257q72 90 100 142t28 104q0 51 -30 83t-84 32q-46 0 -75 -22.5t-54 -67.5l-76 39q31 59 82 95t132 36q96 0 146 -52t50 -133q0 -76 -40 -144t-110 -157l-109 -138l2 -4h280v-80z" />
    <glyph glyph-name="three" unicode="3" horiz-adv-x="520" 
d="M227 -9q-57 0 -108.5 18t-95.5 55l47 70q34 -30 75 -46.5t85 -16.5q66 0 109 36.5t43 96.5q0 55 -36.5 88.5t-90.5 33.5h-103v81h83q55 0 91.5 29t36.5 80q0 49 -38 80.5t-96 31.5q-33 0 -63 -14.5t-57 -42.5l-61 58q34 38 81.5 59t107.5 21q100 0 157.5 -52t57.5 -133
q0 -49 -21.5 -88t-59.5 -61v-4q47 -22 74 -65.5t27 -102.5q0 -96 -66 -154t-179 -58z" />
    <glyph glyph-name="four" unicode="4" horiz-adv-x="549" 
d="M520 155h-87v-155h-90v155h-318v46l339 499h69v-465h87v-80zM343 235v293l-4 1l-195 -290l2 -4h197z" />
    <glyph glyph-name="five" unicode="5" horiz-adv-x="551" 
d="M255 -8q-62 0 -115 17.5t-102 60.5l50 68q34 -32 77 -49t87 -17q77 0 118.5 43.5t41.5 115.5q0 74 -41.5 115.5t-104.5 41.5q-39 0 -72.5 -20t-52.5 -53l-76 14l19 371h384v-80h-303l-8 -194l4 -1q24 22 57.5 32t70.5 10q88 0 150.5 -59t62.5 -172q0 -110 -66.5 -177
t-180.5 -67z" />
    <glyph glyph-name="six" unicode="6" horiz-adv-x="565" 
d="M283 -9q-101 0 -169 68t-68 175q0 63 24.5 131.5t80.5 156.5l113 178h105l-167 -246l2 -3q17 9 41 15t51 6q96 0 160 -66t64 -172q0 -107 -68 -175t-169 -68zM283 395q-65 0 -107 -45t-42 -117q0 -71 42 -116.5t107 -45.5t107 45.5t42 116.5q0 72 -42 117t-107 45z" />
    <glyph glyph-name="seven" unicode="7" horiz-adv-x="500" 
d="M158 0h-105l308 617l-2 3h-308v80h432v-25z" />
    <glyph glyph-name="eight" unicode="8" horiz-adv-x="555" 
d="M278 -9q-100 0 -166.5 59t-66.5 153q0 60 32.5 106.5t83.5 68.5v4q-38 21 -62 58.5t-24 85.5q0 81 58 132.5t145 51.5t145 -51.5t58 -132.5q0 -48 -24 -85.5t-62 -58.5v-4q51 -22 83.5 -68.5t32.5 -106.5q0 -94 -66.5 -153t-166.5 -59zM398 527q0 46 -34.5 76t-85.5 30
t-85.5 -30t-34.5 -76t34.5 -76.5t85.5 -30.5t85.5 30.5t34.5 76.5zM421 202q0 59 -40.5 97t-102.5 38t-102.5 -38t-40.5 -97q0 -58 40.5 -95t102.5 -37t102.5 37t40.5 95z" />
    <glyph glyph-name="nine" unicode="9" horiz-adv-x="565" 
d="M302 0h-105l167 246l-2 3q-17 -9 -41 -15t-51 -6q-96 0 -160 66t-64 172q0 107 68 175t169 68t169 -68t68 -175q0 -63 -24.5 -131.5t-80.5 -156.5zM283 305q65 0 107 45t42 117q0 71 -42 116.5t-107 45.5t-107 -45.5t-42 -116.5q0 -72 42 -117t107 -45z" />
    <glyph glyph-name="colon" unicode=":" horiz-adv-x="194" 
d="M47 451h100v-101h-100v101zM47 101h100v-101h-100v101z" />
    <glyph glyph-name="semicolon" unicode=";" horiz-adv-x="194" 
d="M47 451h100v-101h-100v101zM12 -84q18 42 26.5 72.5t8.5 60.5v52h90v-48q0 -30 -11.5 -64.5t-30.5 -72.5l-34 -70h-79z" />
    <glyph glyph-name="question" unicode="?" horiz-adv-x="428" 
d="M164 228q0 61 24 102.5t53 75t53 65t24 72.5q0 37 -26.5 61.5t-74.5 24.5q-53 0 -81.5 -34.5t-28.5 -89.5l-89 5q0 89 56 143.5t146 54.5q95 0 142 -47.5t47 -119.5q0 -50 -25 -89.5t-55 -74t-55 -69t-25 -75.5v-42h-85v37zM157 101h100v-101h-100v101z" />
    <glyph glyph-name="at" unicode="@" horiz-adv-x="814" 
d="M407 -129q-78 0 -143 28t-111.5 76t-72 114t-25.5 140t25.5 140t72 114.5t111.5 76.5t143 28q156 -1 254 -89t98 -242q0 -97 -44 -145t-113 -49q-34 1 -59.5 12.5t-38.5 30.5h-4q-16 -22 -44 -36t-65 -14q-70 0 -114.5 47.5t-44.5 125.5t47.5 125.5t111.5 47.5
q34 0 59 -11t41 -29l4 1l8 35h60v-223q0 -26 13.5 -43.5t35.5 -17.5q40 0 65 33t25 111q0 136 -82.5 207t-212.5 72q-65 0 -119.5 -23.5t-93.5 -65t-60.5 -97.5t-21.5 -121t21.5 -122t60.5 -98t93.5 -64.5t119.5 -23.5q61 0 113.5 17.5t88.5 52.5l42 -36
q-43 -42 -106.5 -63.5t-137.5 -21.5zM401 118q27 0 48.5 11t34.5 30v140q-13 19 -34.5 30t-48.5 11q-39 0 -64 -30.5t-25 -81.5q0 -49 25 -79.5t64 -30.5z" />
    <glyph glyph-name="A" unicode="A" horiz-adv-x="631" 
d="M198 253h233l-115 312h-4zM524 0l-63 171h-293l-63 -171h-95l267 700h77l267 -700h-97z" />
    <glyph glyph-name="B" unicode="B" horiz-adv-x="582" 
d="M100 0v700h175q110 0 163.5 -54.5t53.5 -135.5q0 -40 -19 -75t-55 -56v-4q61 -19 92.5 -68t31.5 -111q0 -82 -53.5 -139t-163.5 -57h-225zM275 618h-82l-3 -3v-210l3 -3h82q62 0 94.5 29t32.5 80q0 46 -28 76.5t-99 30.5zM325 321h-132l-3 -3v-233l3 -3h132q71 0 99 33.5
t28 84.5t-28 86t-99 35z" />
    <glyph glyph-name="C" unicode="C" horiz-adv-x="707" 
d="M673 600l-68 -64q-34 40 -83.5 64.5t-109.5 24.5q-120 0 -196 -80t-76 -196t76.5 -195.5t197.5 -79.5q66 0 117.5 27.5t86.5 73.5l65 -58q-53 -60 -119.5 -93t-151.5 -33q-78 0 -144.5 28t-114.5 76.5t-75.5 114t-27.5 139.5t27.5 140t75.5 114.5t114.5 76.5t144.5 28
q80 0 144.5 -25.5t116.5 -82.5z" />
    <glyph glyph-name="D" unicode="D" horiz-adv-x="729" 
d="M100 0v700h232q76 0 140.5 -27.5t110 -75t71 -111.5t25.5 -137q0 -72 -25.5 -136t-71 -111t-110 -74.5t-140.5 -27.5h-232zM327 618h-137v-536h137q116 0 189 77t73 190t-73 191t-189 78z" />
    <glyph glyph-name="E" unicode="E" horiz-adv-x="572" 
d="M100 0v700h427v-82h-337v-221h263v-82h-263v-233h347v-82h-437z" />
    <glyph glyph-name="F" unicode="F" horiz-adv-x="560" 
d="M465 305h-275v-305h-90v700h427v-82h-337v-231h275v-82z" />
    <glyph glyph-name="G" unicode="G" horiz-adv-x="780" 
d="M715 95q-58 -49 -131.5 -76.5t-166.5 -27.5q-80 0 -147.5 28t-116 76t-76 113.5t-27.5 140.5q0 77 29 143t78.5 114t117 75t142.5 27q78 0 143.5 -25t116.5 -81l-66 -64q-34 40 -86 64t-112 24q-57 0 -107.5 -21.5t-87 -59t-57.5 -88.5t-21 -108q0 -116 78 -196t206 -80
q57 0 109 15.5t92 49.5v138h-212v81h302v-262z" />
    <glyph glyph-name="H" unicode="H" horiz-adv-x="720" 
d="M530 0v312h-340v-312h-90v700h90v-306h340v306h90v-700h-90z" />
    <glyph glyph-name="I" unicode="I" horiz-adv-x="290" 
d="M100 0v700h90v-700h-90z" />
    <glyph glyph-name="J" unicode="J" horiz-adv-x="500" 
d="M191 77q57 0 95.5 41.5t38.5 125.5v456h90v-466q0 -113 -65 -177.5t-158 -64.5q-46 0 -92.5 14.5t-82.5 44.5l47 73q26 -25 60 -36t67 -11z" />
    <glyph glyph-name="K" unicode="K" horiz-adv-x="645" 
d="M502 0l-308 337h-4v-337h-90v700h90v-291h4l288 291h119l-327 -323l348 -377h-120z" />
    <glyph glyph-name="L" unicode="L" horiz-adv-x="551" 
d="M100 0v700h90v-618h333v-82h-423z" />
    <glyph glyph-name="M" unicode="M" horiz-adv-x="871" 
d="M414 184l-220 341h-4v-525h-90v700h80l253 -400h4l249 400h85v-700h-90v531h-4l-220 -347h-43z" />
    <glyph glyph-name="N" unicode="N" horiz-adv-x="766" 
d="M596 0l-402 528l-4 -1v-527h-90v700h72l400 -526h4v526h90v-700h-70z" />
    <glyph glyph-name="O" unicode="O" horiz-adv-x="827" 
d="M414 708q77 0 143.5 -28t115 -76.5t76.5 -114.5t28 -140t-28 -139.5t-76.5 -114t-115 -76.5t-143.5 -28t-144 28t-115.5 76.5t-76.5 114t-28 139.5t28 140t76.5 114.5t115.5 76.5t144 28zM414 626q-59 0 -109.5 -22.5t-87 -60t-57 -88t-20.5 -106.5t20.5 -106t57 -87.5
t87 -60t109.5 -22.5t109.5 22.5t86.5 60t56.5 87.5t20.5 106t-20.5 106.5t-56.5 88t-86.5 60t-109.5 22.5z" />
    <glyph glyph-name="P" unicode="P" horiz-adv-x="595" 
d="M300 221h-110v-221h-90v700h200q119 0 184 -69.5t65 -169.5q0 -99 -65 -169.5t-184 -70.5zM295 618h-105v-315h105q84 0 124 46t40 112q0 67 -40 112t-124 45z" />
    <glyph glyph-name="Q" unicode="Q" horiz-adv-x="827" 
d="M683 -46l-84 85q-40 -22 -87 -35t-98 -13q-77 0 -144 28t-115.5 76.5t-76.5 114t-28 139.5t28 140t76.5 114.5t115.5 76.5t144 28t143.5 -28t115 -76.5t76.5 -114.5t28 -140q0 -77 -30 -144t-82 -116l77 -78zM414 73q34 0 65 7.5t58 21.5l-138 139l59 57l147 -148
q38 38 60 90t22 109q0 56 -20.5 106.5t-56.5 88t-86.5 60t-109.5 22.5t-109.5 -22.5t-87 -60t-57 -88t-20.5 -106.5t20.5 -106t57 -87.5t87 -60t109.5 -22.5z" />
    <glyph glyph-name="R" unicode="R" horiz-adv-x="620" 
d="M300 618h-110v-262h110q78 0 111.5 37.5t33.5 93.5t-33.5 93.5t-111.5 37.5zM459 0l-176 274h-93v-274h-90v700h200q118 0 176.5 -62t58.5 -151q0 -72 -38 -127.5t-114 -75.5l190 -284h-114z" />
    <glyph glyph-name="S" unicode="S" horiz-adv-x="478" 
d="M203 328q-27 19 -55.5 38.5t-51 43.5t-37 55t-14.5 72q0 78 53 125.5t138 47.5q57 0 103 -18t82 -52l-55 -63q-25 25 -58 40t-76 15q-51 0 -75.5 -25t-24.5 -62q0 -45 35 -75t81 -61q30 -19 62 -40.5t58.5 -49t43.5 -62.5t17 -81q0 -77 -53.5 -131t-157.5 -54
q-59 0 -110 22t-90 62l58 64q29 -31 63.5 -50.5t85.5 -19.5q56 0 85.5 29t29.5 69q0 51 -38.5 86t-98.5 75z" />
    <glyph glyph-name="T" unicode="T" horiz-adv-x="542" 
d="M315 0h-90v618h-205v82h502v-82h-207v-618z" />
    <glyph glyph-name="U" unicode="U" horiz-adv-x="710" 
d="M85 269v431h90v-421q0 -101 50 -153.5t131 -52.5q79 0 129 52.5t50 153.5v421h90v-431q0 -134 -76.5 -206t-192.5 -72q-117 0 -194 72t-77 206z" />
    <glyph glyph-name="V" unicode="V" horiz-adv-x="631" 
d="M354 0h-77l-267 700h97l208 -565h4l207 565h95z" />
    <glyph glyph-name="W" unicode="W" horiz-adv-x="918" 
d="M622 0l-160 521h-4l-162 -521h-74l-207 700h96l148 -536h4l163 536h71l162 -537h4l148 537h92l-207 -700h-74z" />
    <glyph glyph-name="X" unicode="X" horiz-adv-x="629" 
d="M511 0l-198 295h-4l-198 -295h-96l243 361l-227 339h103l179 -267h4l178 267h96l-223 -333l246 -367h-103z" />
    <glyph glyph-name="Y" unicode="Y" horiz-adv-x="592" 
d="M341 0h-90v272l-229 428h98l177 -339h4l172 339h98l-230 -430v-270z" />
    <glyph glyph-name="Z" unicode="Z" horiz-adv-x="545" 
d="M22 0l-2 3l339 612l-2 3h-305v82h448l2 -3l-340 -612l2 -3h336v-82h-478z" />
    <glyph glyph-name="backslash" unicode="\" horiz-adv-x="500" 
d="M500 -151h-95l-389 851h95z" />
    <glyph glyph-name="grave" unicode="`" horiz-adv-x="0" 
d="M-144 691h111l76 -113v-4h-73l-114 111v6z" />
    <glyph glyph-name="a" unicode="a" horiz-adv-x="472" 
d="M196 68q34 0 67 20.5t54 54.5v99l-70 -19q-57 -16 -87.5 -39t-30.5 -60q0 -21 16 -38.5t51 -17.5zM327 0l-6 57h-4q-24 -27 -59 -45.5t-84 -18.5q-60 0 -94.5 37.5t-34.5 88.5q0 72 54 111.5t132 58.5l85 21q-4 43 -31.5 69t-76.5 26q-31 0 -59.5 -12t-55.5 -29l-34 70
q31 20 66.5 34.5t86.5 14.5q103 0 146.5 -53.5t43.5 -132.5v-297h-75z" />
    <glyph glyph-name="b" unicode="b" horiz-adv-x="531" 
d="M292 -5q-44 0 -77.5 16.5t-55.5 43.5l-4 -1l-5 -54h-75v730h85v-301l4 -2q20 25 52.5 40.5t75.5 15.5q99 0 151.5 -66.5t52.5 -177.5t-56.5 -177.5t-147.5 -66.5zM282 68q66 0 97.5 47t31.5 124t-31.5 124t-97.5 47q-41 0 -72.5 -20t-49.5 -54v-195q18 -33 49.5 -53
t72.5 -20z" />
    <glyph glyph-name="c" unicode="c" horiz-adv-x="444" 
d="M120 237q0 -80 38.5 -124.5t96.5 -44.5q39 0 67.5 20t45.5 48l61 -49q-28 -43 -72.5 -69.5t-101.5 -26.5q-97 0 -158.5 68.5t-61.5 177.5t61.5 177.5t158.5 68.5q57 0 101.5 -26.5t72.5 -69.5l-61 -48q-17 28 -45.5 48t-67.5 20q-58 0 -96.5 -44.5t-38.5 -125.5z" />
    <glyph glyph-name="d" unicode="d" horiz-adv-x="536" 
d="M254 68q41 0 72.5 20t49.5 54v195q-18 33 -49.5 53t-72.5 20q-66 0 -97.5 -47t-31.5 -124t31.5 -124t97.5 -47zM386 0l-5 54l-4 1q-22 -27 -55.5 -43.5t-77.5 -16.5q-99 0 -151.5 66.5t-52.5 177.5t56.5 177.5t147.5 66.5q43 0 75.5 -15.5t52.5 -40.5l4 2v296h85v-725
h-75z" />
    <glyph glyph-name="e" unicode="e" horiz-adv-x="469" 
d="M429 87q-28 -43 -72.5 -69.5t-101.5 -26.5q-97 0 -158.5 70t-61.5 181q0 106 60 173.5t145 67.5q87 0 142.5 -70t48.5 -202h-310q7 -69 44 -107.5t90 -38.5q39 0 67.5 20t45.5 48zM235 409q-41 0 -73 -32.5t-40 -94.5h221q-4 60 -31.5 93.5t-76.5 33.5z" />
    <glyph glyph-name="f" unicode="f" horiz-adv-x="300" 
d="M301 400h-125v-400h-85v400h-75v75h75v103q0 77 40 112.5t103 35.5q25 0 48.5 -9t39.5 -21l-40 -61q-8 6 -21.5 11.5t-26.5 5.5q-25 0 -41.5 -18t-16.5 -51v-108h125v-75z" />
    <glyph glyph-name="g" unicode="g" horiz-adv-x="464" 
d="M440 -66q0 -72 -57 -113t-156 -41q-100 0 -153.5 36t-53.5 99q0 34 20 61t53 41v4q-18 12 -29 30.5t-11 41.5q0 28 17 50t45 33v4q-32 21 -51 56.5t-19 78.5q0 71 51 119.5t134 48.5q25 0 48 -5t42 -14q22 31 55 52.5t64 22.5l20 -74q-21 -3 -44 -14.5t-39 -27.5
q19 -22 29 -49.5t10 -58.5q0 -70 -51 -119t-134 -49h-14q-37 0 -59 -11.5t-22 -30.5q0 -22 24.5 -29.5t65.5 -9.5l33 -2q98 -6 140 -42.5t42 -87.5zM230 222q46 0 74 27t28 66q0 40 -28 67.5t-74 27.5t-74 -27.5t-28 -67.5q0 -39 28 -66t74 -27zM230 -148q60 0 92.5 20.5
t32.5 52.5q0 24 -26 40.5t-104 20.5l-35 2q-41 2 -65.5 -18.5t-24.5 -48.5q0 -32 35.5 -50.5t94.5 -18.5z" />
    <glyph glyph-name="h" unicode="h" horiz-adv-x="537" 
d="M283 405q-37 0 -70 -20.5t-53 -57.5v-327h-85v725h85v-309l4 -1q24 31 62 49.5t88 18.5q80 0 116.5 -50t36.5 -116v-317h-85v292q0 50 -25 81.5t-74 31.5z" />
    <glyph glyph-name="i" unicode="i" 
d="M67 580v101h100v-101h-100zM160 475v-475h-85v475h85z" />
    <glyph glyph-name="j" unicode="j" 
d="M67 580v101h100v-101h-100zM75 -78v553h85v-548q0 -77 -40 -112.5t-103 -35.5q-25 0 -46 7t-37 19l40 61q8 -6 19 -9.5t24 -3.5q25 0 41.5 18t16.5 51z" />
    <glyph glyph-name="k" unicode="k" horiz-adv-x="474" 
d="M363 0l-199 218l-4 -2v-216h-85v725h85v-444l4 -1l188 195h115l-227 -223l234 -252h-111z" />
    <glyph glyph-name="l" unicode="l" 
d="M160 725v-725h-85v725h85z" />
    <glyph glyph-name="m" unicode="m" horiz-adv-x="794" 
d="M273 405q-34 0 -64 -20t-49 -57v-328h-85v475h85v-57l4 -1q22 30 58 48t82 18q49 0 79 -23.5t43 -57.5h4q26 37 63 59t83 22q78 0 113 -50t35 -116v-317h-85v292q0 50 -21 81.5t-63 31.5q-34 0 -64 -20t-49 -57v-328h-85v292q0 50 -21 81.5t-63 31.5z" />
    <glyph glyph-name="n" unicode="n" horiz-adv-x="537" 
d="M283 405q-37 0 -70 -20.5t-53 -57.5v-327h-85v475h85v-59l4 -1q24 31 62 49.5t88 18.5q80 0 116.5 -50t36.5 -116v-317h-85v292q0 50 -25 81.5t-74 31.5z" />
    <glyph glyph-name="o" unicode="o" horiz-adv-x="510" 
d="M255 483q99 0 159.5 -71.5t60.5 -174.5t-60.5 -174.5t-159.5 -71.5t-159.5 71.5t-60.5 174.5t60.5 174.5t159.5 71.5zM255 68q61 0 98 48.5t37 120.5t-37 120.5t-98 48.5t-98 -48.5t-37 -120.5t37 -120.5t98 -48.5z" />
    <glyph glyph-name="p" unicode="p" horiz-adv-x="531" 
d="M282 68q66 0 97.5 47t31.5 124t-31.5 124t-97.5 47q-41 0 -72.5 -20t-49.5 -54v-195q18 -33 49.5 -53t72.5 -20zM292 -5q-43 0 -75.5 15.5t-52.5 40.5l-4 -2v-274h-85v700h75l5 -51l4 -1q21 26 55 43t78 17q99 0 151.5 -66.5t52.5 -177.5t-56.5 -177.5t-147.5 -66.5z" />
    <glyph glyph-name="q" unicode="q" horiz-adv-x="531" 
d="M456 -225h-85v274l-4 2q-20 -25 -52.5 -40.5t-75.5 -15.5q-99 0 -151.5 66.5t-52.5 177.5t56.5 177.5t147.5 66.5q44 0 78 -17t55 -43l4 1l5 51h75v-700zM249 68q41 0 72.5 20t49.5 54v195q-18 33 -49.5 53t-72.5 20q-66 0 -97.5 -47t-31.5 -124t31.5 -124t97.5 -47z" />
    <glyph glyph-name="r" unicode="r" horiz-adv-x="347" 
d="M160 0h-85v475h85v-71l4 -2q25 37 66 59.5t96 22.5l1 -86q-49 6 -97.5 -22t-69.5 -74v-302z" />
    <glyph glyph-name="s" unicode="s" horiz-adv-x="353" 
d="M193 281q47 -19 92.5 -47.5t45.5 -97.5q0 -63 -44.5 -101t-119.5 -38q-48 0 -84 12.5t-67 37.5l40 66q31 -24 57 -34t61 -10q36 0 56.5 17t20.5 41q0 29 -30 45t-68 32q-44 19 -83.5 49t-39.5 93q0 53 39 95.5t124 42.5q35 0 65 -11t57 -27l-34 -72q-21 16 -46 26t-50 10
q-28 0 -51.5 -13t-23.5 -44q0 -28 24.5 -43.5t58.5 -28.5z" />
    <glyph glyph-name="t" unicode="t" horiz-adv-x="320" 
d="M320 22q-16 -12 -38.5 -21t-47.5 -9q-63 0 -103 35.5t-40 112.5v260h-75v75h75v143h85v-143h125v-75h-125v-265q0 -37 16.5 -53t41.5 -16q13 0 26.5 5.5t21.5 11.5z" />
    <glyph glyph-name="u" unicode="u" horiz-adv-x="537" 
d="M377 0v58l-4 1q-23 -30 -59.5 -48.5t-85.5 -18.5q-82 0 -120 53t-38 123v307h85v-297q0 -48 25 -78t74 -30q34 0 67.5 20t55.5 57v328h85v-475h-85z" />
    <glyph glyph-name="v" unicode="v" horiz-adv-x="455" 
d="M264 0h-73l-181 475h90l126 -347h4l127 347h88z" />
    <glyph glyph-name="w" unicode="w" horiz-adv-x="700" 
d="M239 0h-63l-161 475h90l102 -328h4l113 328l55 1l112 -329h4l102 328h88l-161 -475h-63l-109 317h-4z" />
    <glyph glyph-name="x" unicode="x" horiz-adv-x="445" 
d="M340 1l-117 183h-4l-117 -183h-92l161 249l-145 225h95l99 -158h4l98 158h92l-143 -221l164 -253h-95z" />
    <glyph glyph-name="y" unicode="y" horiz-adv-x="455" 
d="M59 -225q-17 0 -29.5 1.5t-18.5 4.5l9 77q8 -2 17.5 -3.5t18.5 -1.5q37 0 61.5 25t46.5 85l20 54l-174 458h90l124 -342h4l129 342h88l-202 -531q-32 -84 -73 -126.5t-111 -42.5z" />
    <glyph glyph-name="z" unicode="z" horiz-adv-x="413" 
d="M15 0l-2 3l233 393l-2 3h-202v76h337l2 -3l-232 -392l2 -3h229v-77h-365z" />
    <glyph glyph-name="Adieresis" unicode="&#xc4;" horiz-adv-x="631" 
d="M198 253h233l-115 312h-4zM524 0l-63 171h-293l-63 -171h-95l267 700h77l267 -700h-97zM356 805v101h100v-101h-100zM176 805v101h100v-101h-100z" />
    <glyph glyph-name="Ccedilla" unicode="&#xc7;" horiz-adv-x="707" 
d="M673 600l-68 -64q-34 40 -83.5 64.5t-109.5 24.5q-120 0 -196 -80t-76 -196t76.5 -195.5t197.5 -79.5q66 0 117.5 27.5t86.5 73.5l65 -58q-53 -60 -119.5 -93t-151.5 -33q-78 0 -144.5 28t-114.5 76.5t-75.5 114t-27.5 139.5t27.5 140t75.5 114.5t114.5 76.5t144.5 28
q80 0 144.5 -25.5t116.5 -82.5zM484 -138q0 -50 -38 -74.5t-87 -24.5q-37 0 -66.5 15.5t-42.5 46.5l47 38q10 -23 25 -35t43 -12q24 0 40 11t16 33q0 21 -18.5 29t-47.5 8l-14 12l37 91h63l-31 -63q31 -2 52.5 -21.5t21.5 -53.5z" />
    <glyph glyph-name="Eacute" unicode="&#xc9;" horiz-adv-x="572" 
d="M100 0v700h427v-82h-337v-221h263v-82h-263v-233h347v-82h-437zM469 916v-6l-114 -111h-73v4l76 113h111z" />
    <glyph glyph-name="Ntilde" unicode="&#xd1;" horiz-adv-x="766" 
d="M596 0l-402 528l-4 -1v-527h-90v700h72l400 -526h4v526h90v-700h-70zM459 904h65q4 -57 -26 -79t-62 -22q-42 0 -60 20.5t-41 20.5q-14 0 -21.5 -11.5t-7.5 -25.5h-66q-3 57 25.5 79t61.5 22q44 0 62 -20.5t41 -20.5q14 0 21.5 11t7.5 26z" />
    <glyph glyph-name="Odieresis" unicode="&#xd6;" horiz-adv-x="827" 
d="M414 708q77 0 143.5 -28t115 -76.5t76.5 -114.5t28 -140t-28 -139.5t-76.5 -114t-115 -76.5t-143.5 -28t-144 28t-115.5 76.5t-76.5 114t-28 139.5t28 140t76.5 114.5t115.5 76.5t144 28zM414 626q-59 0 -109.5 -22.5t-87 -60t-57 -88t-20.5 -106.5t20.5 -106t57 -87.5
t87 -60t109.5 -22.5t109.5 22.5t86.5 60t56.5 87.5t20.5 106t-20.5 106.5t-56.5 88t-86.5 60t-109.5 22.5zM454 805v101h100v-101h-100zM274 805v101h100v-101h-100z" />
    <glyph glyph-name="Udieresis" unicode="&#xdc;" horiz-adv-x="710" 
d="M85 269v431h90v-421q0 -101 50 -153.5t131 -52.5q79 0 129 52.5t50 153.5v421h90v-431q0 -134 -76.5 -206t-192.5 -72q-117 0 -194 72t-77 206zM395 805v101h100v-101h-100zM215 805v101h100v-101h-100z" />
    <glyph glyph-name="aacute" unicode="&#xe1;" horiz-adv-x="472" 
d="M196 68q34 0 67 20.5t54 54.5v99l-70 -19q-57 -16 -87.5 -39t-30.5 -60q0 -21 16 -38.5t51 -17.5zM327 0l-6 57h-4q-24 -27 -59 -45.5t-84 -18.5q-60 0 -94.5 37.5t-34.5 88.5q0 72 54 111.5t132 58.5l85 21q-4 43 -31.5 69t-76.5 26q-31 0 -59.5 -12t-55.5 -29l-34 70
q31 20 66.5 34.5t86.5 14.5q103 0 146.5 -53.5t43.5 -132.5v-297h-75zM363 691v-6l-114 -111h-73v4l76 113h111z" />
    <glyph glyph-name="agrave" unicode="&#xe0;" horiz-adv-x="472" 
d="M196 68q34 0 67 20.5t54 54.5v99l-70 -19q-57 -16 -87.5 -39t-30.5 -60q0 -21 16 -38.5t51 -17.5zM327 0l-6 57h-4q-24 -27 -59 -45.5t-84 -18.5q-60 0 -94.5 37.5t-34.5 88.5q0 72 54 111.5t132 58.5l85 21q-4 43 -31.5 69t-76.5 26q-31 0 -59.5 -12t-55.5 -29l-34 70
q31 20 66.5 34.5t86.5 14.5q103 0 146.5 -53.5t43.5 -132.5v-297h-75zM68 691h111l76 -113v-4h-73l-114 111v6z" />
    <glyph glyph-name="adieresis" unicode="&#xe4;" horiz-adv-x="472" 
d="M196 68q34 0 67 20.5t54 54.5v99l-70 -19q-57 -16 -87.5 -39t-30.5 -60q0 -21 16 -38.5t51 -17.5zM327 0l-6 57h-4q-24 -27 -59 -45.5t-84 -18.5q-60 0 -94.5 37.5t-34.5 88.5q0 72 54 111.5t132 58.5l85 21q-4 43 -31.5 69t-76.5 26q-31 0 -59.5 -12t-55.5 -29l-34 70
q31 20 66.5 34.5t86.5 14.5q103 0 146.5 -53.5t43.5 -132.5v-297h-75zM253 580v101h100v-101h-100zM73 580v101h100v-101h-100z" />
    <glyph glyph-name="atilde" unicode="&#xe3;" horiz-adv-x="472" 
d="M196 68q34 0 67 20.5t54 54.5v99l-70 -19q-57 -16 -87.5 -39t-30.5 -60q0 -21 16 -38.5t51 -17.5zM327 0l-6 57h-4q-24 -27 -59 -45.5t-84 -18.5q-60 0 -94.5 37.5t-34.5 88.5q0 72 54 111.5t132 58.5l85 21q-4 43 -31.5 69t-76.5 26q-31 0 -59.5 -12t-55.5 -29l-34 70
q31 20 66.5 34.5t86.5 14.5q103 0 146.5 -53.5t43.5 -132.5v-297h-75zM289 679h65q4 -57 -26 -79t-62 -22q-42 0 -60 20.5t-41 20.5q-14 0 -21.5 -11.5t-7.5 -25.5h-66q-3 57 25.5 79t61.5 22q44 0 62 -20.5t41 -20.5q14 0 21.5 11t7.5 26z" />
    <glyph glyph-name="ccedilla" unicode="&#xe7;" horiz-adv-x="444" 
d="M120 237q0 -80 38.5 -124.5t96.5 -44.5q39 0 67.5 20t45.5 48l61 -49q-28 -43 -72.5 -69.5t-101.5 -26.5q-97 0 -158.5 68.5t-61.5 177.5t61.5 177.5t158.5 68.5q57 0 101.5 -26.5t72.5 -69.5l-61 -48q-17 28 -45.5 48t-67.5 20q-58 0 -96.5 -44.5t-38.5 -125.5z
M330 -138q0 -50 -38 -74.5t-87 -24.5q-37 0 -66.5 15.5t-42.5 46.5l47 38q10 -23 25 -35t43 -12q24 0 40 11t16 33q0 21 -18.5 29t-47.5 8l-14 12l37 91h63l-31 -63q31 -2 52.5 -21.5t21.5 -53.5z" />
    <glyph glyph-name="eacute" unicode="&#xe9;" horiz-adv-x="469" 
d="M429 87q-28 -43 -72.5 -69.5t-101.5 -26.5q-97 0 -158.5 70t-61.5 181q0 106 60 173.5t145 67.5q87 0 142.5 -70t48.5 -202h-310q7 -69 44 -107.5t90 -38.5q39 0 67.5 20t45.5 48zM235 409q-41 0 -73 -32.5t-40 -94.5h221q-4 60 -31.5 93.5t-76.5 33.5zM387 689v-6
l-114 -111h-73v4l76 113h111z" />
    <glyph glyph-name="egrave" unicode="&#xe8;" horiz-adv-x="469" 
d="M429 87q-28 -43 -72.5 -69.5t-101.5 -26.5q-97 0 -158.5 70t-61.5 181q0 106 60 173.5t145 67.5q87 0 142.5 -70t48.5 -202h-310q7 -69 44 -107.5t90 -38.5q39 0 67.5 20t45.5 48zM235 409q-41 0 -73 -32.5t-40 -94.5h221q-4 60 -31.5 93.5t-76.5 33.5zM92 689h111
l76 -113v-4h-73l-114 111v6z" />
    <glyph glyph-name="edieresis" unicode="&#xeb;" horiz-adv-x="469" 
d="M429 87q-28 -43 -72.5 -69.5t-101.5 -26.5q-97 0 -158.5 70t-61.5 181q0 106 60 173.5t145 67.5q87 0 142.5 -70t48.5 -202h-310q7 -69 44 -107.5t90 -38.5q39 0 67.5 20t45.5 48zM235 409q-41 0 -73 -32.5t-40 -94.5h221q-4 60 -31.5 93.5t-76.5 33.5zM277 578v101h100
v-101h-100zM97 578v101h100v-101h-100z" />
    <glyph glyph-name="iacute" unicode="&#xed;" 
d="M160 475v-475h-85v475h85zM268 691v-6l-114 -111h-73v4l76 113h111z" />
    <glyph glyph-name="igrave" unicode="&#xec;" 
d="M160 475v-475h-85v475h85zM-27 691h111l76 -113v-4h-73l-114 111v6z" />
    <glyph glyph-name="idieresis" unicode="&#xef;" 
d="M160 475v-475h-85v475h85zM158 580v101h100v-101h-100zM-22 580v101h100v-101h-100z" />
    <glyph glyph-name="ntilde" unicode="&#xf1;" horiz-adv-x="537" 
d="M283 405q-37 0 -70 -20.5t-53 -57.5v-327h-85v475h85v-59l4 -1q24 31 62 49.5t88 18.5q80 0 116.5 -50t36.5 -116v-317h-85v292q0 50 -25 81.5t-74 31.5zM352 679h65q4 -57 -26 -79t-62 -22q-42 0 -60 20.5t-41 20.5q-14 0 -21.5 -11.5t-7.5 -25.5h-66q-3 57 25.5 79
t61.5 22q44 0 62 -20.5t41 -20.5q14 0 21.5 11t7.5 26z" />
    <glyph glyph-name="oacute" unicode="&#xf3;" horiz-adv-x="510" 
d="M255 483q99 0 159.5 -71.5t60.5 -174.5t-60.5 -174.5t-159.5 -71.5t-159.5 71.5t-60.5 174.5t60.5 174.5t159.5 71.5zM255 68q61 0 98 48.5t37 120.5t-37 120.5t-98 48.5t-98 -48.5t-37 -120.5t37 -120.5t98 -48.5zM405 691v-6l-114 -111h-73v4l76 113h111z" />
    <glyph glyph-name="ograve" unicode="&#xf2;" horiz-adv-x="510" 
d="M255 483q99 0 159.5 -71.5t60.5 -174.5t-60.5 -174.5t-159.5 -71.5t-159.5 71.5t-60.5 174.5t60.5 174.5t159.5 71.5zM255 68q61 0 98 48.5t37 120.5t-37 120.5t-98 48.5t-98 -48.5t-37 -120.5t37 -120.5t98 -48.5zM110 691h111l76 -113v-4h-73l-114 111v6z" />
    <glyph glyph-name="odieresis" unicode="&#xf6;" horiz-adv-x="510" 
d="M255 483q99 0 159.5 -71.5t60.5 -174.5t-60.5 -174.5t-159.5 -71.5t-159.5 71.5t-60.5 174.5t60.5 174.5t159.5 71.5zM255 68q61 0 98 48.5t37 120.5t-37 120.5t-98 48.5t-98 -48.5t-37 -120.5t37 -120.5t98 -48.5zM295 580v101h100v-101h-100zM115 580v101h100v-101
h-100z" />
    <glyph glyph-name="otilde" unicode="&#xf5;" horiz-adv-x="510" 
d="M255 483q99 0 159.5 -71.5t60.5 -174.5t-60.5 -174.5t-159.5 -71.5t-159.5 71.5t-60.5 174.5t60.5 174.5t159.5 71.5zM255 68q61 0 98 48.5t37 120.5t-37 120.5t-98 48.5t-98 -48.5t-37 -120.5t37 -120.5t98 -48.5zM331 679h65q4 -57 -26 -79t-62 -22q-42 0 -60 20.5
t-41 20.5q-14 0 -21.5 -11.5t-7.5 -25.5h-66q-3 57 25.5 79t61.5 22q44 0 62 -20.5t41 -20.5q14 0 21.5 11t7.5 26z" />
    <glyph glyph-name="uacute" unicode="&#xfa;" horiz-adv-x="537" 
d="M377 0v58l-4 1q-23 -30 -59.5 -48.5t-85.5 -18.5q-82 0 -120 53t-38 123v307h85v-297q0 -48 25 -78t74 -30q34 0 67.5 20t55.5 57v328h85v-475h-85zM416 691v-6l-114 -111h-73v4l76 113h111z" />
    <glyph glyph-name="ugrave" unicode="&#xf9;" horiz-adv-x="537" 
d="M377 0v58l-4 1q-23 -30 -59.5 -48.5t-85.5 -18.5q-82 0 -120 53t-38 123v307h85v-297q0 -48 25 -78t74 -30q34 0 67.5 20t55.5 57v328h85v-475h-85zM121 691h111l76 -113v-4h-73l-114 111v6z" />
    <glyph glyph-name="udieresis" unicode="&#xfc;" horiz-adv-x="537" 
d="M377 0v58l-4 1q-23 -30 -59.5 -48.5t-85.5 -18.5q-82 0 -120 53t-38 123v307h85v-297q0 -48 25 -78t74 -30q34 0 67.5 20t55.5 57v328h85v-475h-85zM306 580v101h100v-101h-100zM126 580v101h100v-101h-100z" />
    <glyph glyph-name="copyright" unicode="&#xa9;" horiz-adv-x="814" 
d="M407 -9q-78 0 -143 28t-111.5 76t-72 114t-25.5 140t25.5 140t72 114.5t111.5 76.5t143 28t143 -28.5t111.5 -77t72 -114t25.5 -139.5t-25.5 -139.5t-72 -114t-111.5 -76.5t-143 -28zM407 42q65 0 119.5 24t93.5 65t60.5 97.5t21.5 121.5q0 64 -21.5 120t-60.5 97.5
t-93.5 65.5t-119.5 24t-119.5 -23.5t-93.5 -65t-60.5 -97.5t-21.5 -121t21.5 -122t60.5 -98t93.5 -64.5t119.5 -23.5zM220 349q0 80 55.5 137t140.5 57q43 0 79 -15t63 -46l-49 -48q-16 18 -38.5 29.5t-50.5 11.5q-53 0 -86.5 -36t-33.5 -90t33.5 -90t86.5 -36
q28 0 50.5 11.5t38.5 29.5l49 -48q-27 -31 -63 -46t-79 -15q-85 0 -140.5 57t-55.5 137z" />
    <glyph glyph-name="acute" unicode="&#xb4;" horiz-adv-x="0" 
d="M150 691v-6l-114 -111h-73v4l76 113h111z" />
    <glyph glyph-name="dieresis" unicode="&#xa8;" horiz-adv-x="0" 
d="M40 580v101h100v-101h-100zM-140 580v101h100v-101h-100z" />
    <glyph glyph-name="ellipsis" unicode="&#x2026;" horiz-adv-x="582" 
d="M47 101h100v-101h-100v101zM241 101h100v-101h-100v101zM435 101h100v-101h-100v101z" />
    <glyph glyph-name="Agrave" unicode="&#xc0;" horiz-adv-x="631" 
d="M198 253h233l-115 312h-4zM524 0l-63 171h-293l-63 -171h-95l267 700h77l267 -700h-97zM171 916h111l76 -113v-4h-73l-114 111v6z" />
    <glyph glyph-name="Atilde" unicode="&#xc3;" horiz-adv-x="631" 
d="M198 253h233l-115 312h-4zM524 0l-63 171h-293l-63 -171h-95l267 700h77l267 -700h-97zM392 904h65q4 -57 -26 -79t-62 -22q-42 0 -60 20.5t-41 20.5q-14 0 -21.5 -11.5t-7.5 -25.5h-66q-3 57 25.5 79t61.5 22q44 0 62 -20.5t41 -20.5q14 0 21.5 11t7.5 26z" />
    <glyph glyph-name="Otilde" unicode="&#xd5;" horiz-adv-x="827" 
d="M414 708q77 0 143.5 -28t115 -76.5t76.5 -114.5t28 -140t-28 -139.5t-76.5 -114t-115 -76.5t-143.5 -28t-144 28t-115.5 76.5t-76.5 114t-28 139.5t28 140t76.5 114.5t115.5 76.5t144 28zM414 626q-59 0 -109.5 -22.5t-87 -60t-57 -88t-20.5 -106.5t20.5 -106t57 -87.5
t87 -60t109.5 -22.5t109.5 22.5t86.5 60t56.5 87.5t20.5 106t-20.5 106.5t-56.5 88t-86.5 60t-109.5 22.5zM490 904h65q4 -57 -26 -79t-62 -22q-42 0 -60 20.5t-41 20.5q-14 0 -21.5 -11.5t-7.5 -25.5h-66q-3 57 25.5 79t61.5 22q44 0 62 -20.5t41 -20.5q14 0 21.5 11
t7.5 26z" />
    <glyph glyph-name="endash" unicode="&#x2013;" horiz-adv-x="509" 
d="M55 302v75h399v-75h-399z" />
    <glyph glyph-name="emdash" unicode="&#x2014;" horiz-adv-x="659" 
d="M55 302v75h549v-75h-549z" />
    <glyph glyph-name="quotedblleft" unicode="&#x201c;" horiz-adv-x="384" 
d="M342 711q-18 -42 -26.5 -72.5t-8.5 -60.5v-52h-90v48q0 30 11.5 64.5t30.5 72.5l34 70h79zM177 711q-18 -42 -26.5 -72.5t-8.5 -60.5v-52h-90v48q0 30 11.5 64.5t30.5 72.5l34 70h79z" />
    <glyph glyph-name="quotedblright" unicode="&#x201d;" horiz-adv-x="379" 
d="M202 596q18 42 26.5 72.5t8.5 60.5v52h90v-48q0 -30 -11.5 -64.5t-30.5 -72.5l-34 -70h-79zM37 596q18 42 26.5 72.5t8.5 60.5v52h90v-48q0 -30 -11.5 -64.5t-30.5 -72.5l-34 -70h-79z" />
    <glyph glyph-name="quoteleft" unicode="&#x2018;" horiz-adv-x="219" 
d="M177 711q-18 -42 -26.5 -72.5t-8.5 -60.5v-52h-90v48q0 30 11.5 64.5t30.5 72.5l34 70h79z" />
    <glyph glyph-name="quoteright" unicode="&#x2019;" horiz-adv-x="219" 
d="M42 596q18 42 26.5 72.5t8.5 60.5v52h90v-48q0 -30 -11.5 -64.5t-30.5 -72.5l-34 -70h-79z" />
    <glyph glyph-name="ydieresis" unicode="&#xff;" horiz-adv-x="455" 
d="M59 -225q-17 0 -29.5 1.5t-18.5 4.5l9 77q8 -2 17.5 -3.5t18.5 -1.5q37 0 61.5 25t46.5 85l20 54l-174 458h90l124 -342h4l129 342h88l-202 -531q-32 -84 -73 -126.5t-111 -42.5zM268 580v101h100v-101h-100zM88 580v101h100v-101h-100z" />
    <glyph glyph-name="Ydieresis" unicode="&#x178;" horiz-adv-x="592" 
d="M341 0h-90v272l-229 428h98l177 -339h4l172 339h98l-230 -430v-270zM336 805v101h100v-101h-100zM156 805v101h100v-101h-100z" />
    <glyph glyph-name="Aacute" unicode="&#xc1;" horiz-adv-x="631" 
d="M198 253h233l-115 312h-4zM524 0l-63 171h-293l-63 -171h-95l267 700h77l267 -700h-97zM466 916v-6l-114 -111h-73v4l76 113h111z" />
    <glyph glyph-name="Edieresis" unicode="&#xcb;" horiz-adv-x="572" 
d="M100 0v700h427v-82h-337v-221h263v-82h-263v-233h347v-82h-437zM359 805v101h100v-101h-100zM179 805v101h100v-101h-100z" />
    <glyph glyph-name="Egrave" unicode="&#xc8;" horiz-adv-x="572" 
d="M100 0v700h427v-82h-337v-221h263v-82h-263v-233h347v-82h-437zM174 916h111l76 -113v-4h-73l-114 111v6z" />
    <glyph glyph-name="Iacute" unicode="&#xcd;" horiz-adv-x="290" 
d="M100 0v700h90v-700h-90zM295 916v-6l-114 -111h-73v4l76 113h111z" />
    <glyph glyph-name="Idieresis" unicode="&#xcf;" horiz-adv-x="290" 
d="M100 0v700h90v-700h-90zM185 805v101h100v-101h-100zM5 805v101h100v-101h-100z" />
    <glyph glyph-name="Igrave" unicode="&#xcc;" horiz-adv-x="290" 
d="M100 0v700h90v-700h-90zM0 916h111l76 -113v-4h-73l-114 111v6z" />
    <glyph glyph-name="Oacute" unicode="&#xd3;" horiz-adv-x="827" 
d="M414 708q77 0 143.5 -28t115 -76.5t76.5 -114.5t28 -140t-28 -139.5t-76.5 -114t-115 -76.5t-143.5 -28t-144 28t-115.5 76.5t-76.5 114t-28 139.5t28 140t76.5 114.5t115.5 76.5t144 28zM414 626q-59 0 -109.5 -22.5t-87 -60t-57 -88t-20.5 -106.5t20.5 -106t57 -87.5
t87 -60t109.5 -22.5t109.5 22.5t86.5 60t56.5 87.5t20.5 106t-20.5 106.5t-56.5 88t-86.5 60t-109.5 22.5zM564 916v-6l-114 -111h-73v4l76 113h111z" />
    <glyph glyph-name="Ograve" unicode="&#xd2;" horiz-adv-x="827" 
d="M414 708q77 0 143.5 -28t115 -76.5t76.5 -114.5t28 -140t-28 -139.5t-76.5 -114t-115 -76.5t-143.5 -28t-144 28t-115.5 76.5t-76.5 114t-28 139.5t28 140t76.5 114.5t115.5 76.5t144 28zM414 626q-59 0 -109.5 -22.5t-87 -60t-57 -88t-20.5 -106.5t20.5 -106t57 -87.5
t87 -60t109.5 -22.5t109.5 22.5t86.5 60t56.5 87.5t20.5 106t-20.5 106.5t-56.5 88t-86.5 60t-109.5 22.5zM269 916h111l76 -113v-4h-73l-114 111v6z" />
    <glyph glyph-name="Uacute" unicode="&#xda;" horiz-adv-x="710" 
d="M85 269v431h90v-421q0 -101 50 -153.5t131 -52.5q79 0 129 52.5t50 153.5v421h90v-431q0 -134 -76.5 -206t-192.5 -72q-117 0 -194 72t-77 206zM505 916v-6l-114 -111h-73v4l76 113h111z" />
    <glyph glyph-name="Ugrave" unicode="&#xd9;" horiz-adv-x="710" 
d="M85 269v431h90v-421q0 -101 50 -153.5t131 -52.5q79 0 129 52.5t50 153.5v421h90v-431q0 -134 -76.5 -206t-192.5 -72q-117 0 -194 72t-77 206zM210 916h111l76 -113v-4h-73l-114 111v6z" />
    <glyph glyph-name="dotlessi" unicode="&#x131;" 
d="M160 475v-475h-85v475h85z" />
    <glyph glyph-name="tilde" unicode="&#x2dc;" horiz-adv-x="0" 
d="M79 679h65q4 -57 -26 -79t-62 -22q-42 0 -60 20.5t-41 20.5q-14 0 -21.5 -11.5t-7.5 -25.5h-66q-3 57 25.5 79t61.5 22q44 0 62 -20.5t41 -20.5q14 0 21.5 11t7.5 26z" />
    <glyph glyph-name="dotaccent" unicode="&#x2d9;" horiz-adv-x="0" 
d="M-50 580v101h100v-101h-100z" />
    <glyph glyph-name="cedilla" unicode="&#xb8;" horiz-adv-x="0" 
d="M78 -138q0 -50 -38 -74.5t-87 -24.5q-37 0 -66.5 15.5t-42.5 46.5l47 38q10 -23 25 -35t43 -12q24 0 40 11t16 33q0 21 -18.5 29t-47.5 8l-14 12l37 91h63l-31 -63q31 -2 52.5 -21.5t21.5 -53.5z" />
    <glyph glyph-name="Cacute" unicode="&#x106;" horiz-adv-x="707" 
d="M673 600l-68 -64q-34 40 -83.5 64.5t-109.5 24.5q-120 0 -196 -80t-76 -196t76.5 -195.5t197.5 -79.5q66 0 117.5 27.5t86.5 73.5l65 -58q-53 -60 -119.5 -93t-151.5 -33q-78 0 -144.5 28t-114.5 76.5t-75.5 114t-27.5 139.5t27.5 140t75.5 114.5t114.5 76.5t144.5 28
q80 0 144.5 -25.5t116.5 -82.5zM546 916v-6l-114 -111h-73v4l76 113h111z" />
    <glyph glyph-name="Cdotaccent" unicode="&#x10a;" horiz-adv-x="707" 
d="M673 600l-68 -64q-34 40 -83.5 64.5t-109.5 24.5q-120 0 -196 -80t-76 -196t76.5 -195.5t197.5 -79.5q66 0 117.5 27.5t86.5 73.5l65 -58q-53 -60 -119.5 -93t-151.5 -33q-78 0 -144.5 28t-114.5 76.5t-75.5 114t-27.5 139.5t27.5 140t75.5 114.5t114.5 76.5t144.5 28
q80 0 144.5 -25.5t116.5 -82.5zM346 805v101h100v-101h-100z" />
    <glyph glyph-name="Edotaccent" unicode="&#x116;" horiz-adv-x="572" 
d="M100 0v700h427v-82h-337v-221h263v-82h-263v-233h347v-82h-437zM269 805v101h100v-101h-100z" />
    <glyph glyph-name="Idotaccent" unicode="&#x130;" horiz-adv-x="290" 
d="M100 0v700h90v-700h-90zM95 805v101h100v-101h-100z" />
    <glyph glyph-name="Itilde" unicode="&#x128;" horiz-adv-x="290" 
d="M103 0v700h90v-700h-90zM224 904h65q4 -57 -26 -79t-62 -22q-42 0 -60 20.5t-41 20.5q-14 0 -21.5 -11.5t-7.5 -25.5h-66q-3 57 25.5 79t61.5 22q44 0 62 -20.5t41 -20.5q14 0 21.5 11t7.5 26z" />
    <glyph glyph-name="Nacute" unicode="&#x143;" horiz-adv-x="766" 
d="M596 0l-402 528l-4 -1v-527h-90v700h72l400 -526h4v526h90v-700h-70zM533 916v-6l-114 -111h-73v4l76 113h111z" />
    <glyph glyph-name="Utilde" unicode="&#x168;" horiz-adv-x="710" 
d="M85 269v431h90v-421q0 -101 50 -153.5t131 -52.5q79 0 129 52.5t50 153.5v421h90v-431q0 -134 -76.5 -206t-192.5 -72q-117 0 -194 72t-77 206zM431 904h65q4 -57 -26 -79t-62 -22q-42 0 -60 20.5t-41 20.5q-14 0 -21.5 -11.5t-7.5 -25.5h-66q-3 57 25.5 79t61.5 22
q44 0 62 -20.5t41 -20.5q14 0 21.5 11t7.5 26z" />
    <glyph glyph-name="cacute" unicode="&#x107;" horiz-adv-x="444" 
d="M120 237q0 -80 38.5 -124.5t96.5 -44.5q39 0 67.5 20t45.5 48l61 -49q-28 -43 -72.5 -69.5t-101.5 -26.5q-97 0 -158.5 68.5t-61.5 177.5t61.5 177.5t158.5 68.5q57 0 101.5 -26.5t72.5 -69.5l-61 -48q-17 28 -45.5 48t-67.5 20q-58 0 -96.5 -44.5t-38.5 -125.5zM404 691
v-6l-114 -111h-73v4l76 113h111z" />
    <glyph glyph-name="cdotaccent" unicode="&#x10b;" horiz-adv-x="444" 
d="M120 237q0 -80 38.5 -124.5t96.5 -44.5q39 0 67.5 20t45.5 48l61 -49q-28 -43 -72.5 -69.5t-101.5 -26.5q-97 0 -158.5 68.5t-61.5 177.5t61.5 177.5t158.5 68.5q57 0 101.5 -26.5t72.5 -69.5l-61 -48q-17 28 -45.5 48t-67.5 20q-58 0 -96.5 -44.5t-38.5 -125.5zM204 580
v101h100v-101h-100z" />
    <glyph glyph-name="dotlessj" unicode="&#xf6be;" 
d="M67 580v101h100v-101h-100zM75 -78v553h85v-548q0 -77 -40 -112.5t-103 -35.5q-25 0 -46 7t-37 19l40 61q8 -6 19 -9.5t24 -3.5q25 0 41.5 18t16.5 51z" />
    <glyph glyph-name="edotaccent" unicode="&#x117;" horiz-adv-x="469" 
d="M429 87q-28 -43 -72.5 -69.5t-101.5 -26.5q-97 0 -158.5 70t-61.5 181q0 106 60 173.5t145 67.5q87 0 142.5 -70t48.5 -202h-310q7 -69 44 -107.5t90 -38.5q39 0 67.5 20t45.5 48zM235 409q-41 0 -73 -32.5t-40 -94.5h221q-4 60 -31.5 93.5t-76.5 33.5zM187 578v101h100
v-101h-100z" />
    <glyph glyph-name="itilde" unicode="&#x129;" 
d="M163 475v-475h-85v475h85zM197 679h65q4 -57 -26 -79t-62 -22q-42 0 -60 20.5t-41 20.5q-14 0 -21.5 -11.5t-7.5 -25.5h-66q-3 57 25.5 79t61.5 22q44 0 62 -20.5t41 -20.5q14 0 21.5 11t7.5 26z" />
    <glyph glyph-name="nacute" unicode="&#x144;" horiz-adv-x="537" 
d="M283 405q-37 0 -70 -20.5t-53 -57.5v-327h-85v475h85v-59l4 -1q24 31 62 49.5t88 18.5q80 0 116.5 -50t36.5 -116v-317h-85v292q0 50 -25 81.5t-74 31.5zM426 691v-6l-114 -111h-73v4l76 113h111z" />
    <glyph glyph-name="utilde" unicode="&#x169;" horiz-adv-x="537" 
d="M377 0v58l-4 1q-23 -30 -59.5 -48.5t-85.5 -18.5q-82 0 -120 53t-38 123v307h85v-297q0 -48 25 -78t74 -30q34 0 67.5 20t55.5 57v328h85v-475h-85zM342 679h65q4 -57 -26 -79t-62 -22q-42 0 -60 20.5t-41 20.5q-14 0 -21.5 -11.5t-7.5 -25.5h-66q-3 57 25.5 79t61.5 22
q44 0 62 -20.5t41 -20.5q14 0 21.5 11t7.5 26z" />
    <glyph glyph-name="g.school" horiz-adv-x="522" 
d="M242 75q40 0 71 20t49 53v186q-18 33 -49 53t-71 20q-63 0 -92.5 -45.5t-29.5 -120.5t29.5 -120.5t92.5 -45.5zM225 -224q-58 0 -100.5 17t-73.5 50l54 62q21 -25 50.5 -38.5t69.5 -13.5q54 0 95.5 36t41.5 106v59l-4 2q-20 -24 -52 -39t-74 -15q-96 0 -146.5 65
t-50.5 174t54.5 174t142.5 65q44 0 77.5 -16.5t54.5 -43.5l4 1l9 54h70v-480q0 -100 -61 -159.5t-161 -59.5z" />
    <glyph glyph-name="at.cap" horiz-adv-x="814" 
d="M407 -9q-78 0 -143 28t-111.5 76t-72 114t-25.5 140t25.5 140t72 114.5t111.5 76.5t143 28q156 -1 254 -89t98 -242q0 -97 -44 -145t-113 -49q-34 1 -59.5 12.5t-38.5 30.5h-4q-16 -22 -44 -36t-65 -14q-70 0 -114.5 47.5t-44.5 125.5t47.5 125.5t111.5 47.5q34 0 59 -11
t41 -29l4 1l8 35h60v-223q0 -26 13.5 -43.5t35.5 -17.5q40 0 65 33t25 111q0 136 -82.5 207t-212.5 72q-65 0 -119.5 -23.5t-93.5 -65t-60.5 -97.5t-21.5 -121t21.5 -122t60.5 -98t93.5 -64.5t119.5 -23.5q61 0 113.5 17.5t88.5 52.5l42 -36q-43 -42 -106.5 -63.5
t-137.5 -21.5zM401 238q27 0 48.5 11t34.5 30v140q-13 19 -34.5 30t-48.5 11q-39 0 -64 -30.5t-25 -81.5q0 -49 25 -79.5t64 -30.5z" />
    <glyph glyph-name="w.alt" horiz-adv-x="700" 
d="M239 0h-63l-161 475h90l102 -328h4l113 328l55 1l112 -329h4l102 328h88l-161 -475h-63l-109 317h-4z" />
    <glyph glyph-name="W.alt" horiz-adv-x="918" 
d="M622 0l-160 521h-4l-162 -521h-74l-207 700h96l148 -536h4l163 536h71l162 -537h4l148 537h92l-207 -700h-74z" />
    </font>
</defs>
</svg>
